<svg xmlns="http://www.w3.org/2000/svg" viewBox="0 0 512 512" width="512" height="512">
  <defs>
    <linearGradient id="bgGrad" x1="0%" y1="0%" x2="100%" y2="100%">
      <stop offset="0%" stop-color="#0b192c" />
      <stop offset="100%" stop-color="#1e3e62" />
    </linearGradient>
    <linearGradient id="goldGrad" x1="0%" y1="0%" x2="100%" y2="100%">
      <stop offset="0%" stop-color="#f59e0b" />
      <stop offset="100%" stop-color="#d97706" />
    </linearGradient>
    <linearGradient id="tealGrad" x1="0%" y1="0%" x2="100%" y2="100%">
      <stop offset="0%" stop-color="#38bdf8" />
      <stop offset="100%" stop-color="#0284c7" />
    </linearGradient>
  </defs>
  <rect width="512" height="512" rx="100" fill="url(#bgGrad)"/>
  <rect x="24" y="24" width="464" height="464" rx="80" fill="none" stroke="rgba(255,255,255,0.12)" stroke-width="6"/>
  <!-- Diamond industrial badge -->
  <polygon points="256,70 430,256 256,442 82,256" fill="none" stroke="url(#goldGrad)" stroke-width="12" stroke-linejoin="round"/>
  <!-- Leaf / Processing silhouette -->
  <path d="M256,130 C340,160 380,260 310,340 C280,375 256,390 256,390 C256,390 232,375 202,340 C132,260 172,160 256,130 Z" fill="rgba(255,255,255,0.06)" stroke="url(#tealGrad)" stroke-width="8"/>
  <line x1="256" y1="160" x2="256" y2="370" stroke="#f59e0b" stroke-width="6" stroke-linecap="round"/>
  <line x1="256" y1="210" x2="295" y2="190" stroke="#38bdf8" stroke-width="5" stroke-linecap="round"/>
  <line x1="256" y1="250" x2="215" y2="230" stroke="#38bdf8" stroke-width="5" stroke-linecap="round"/>
  <line x1="256" y1="290" x2="295" y2="270" stroke="#38bdf8" stroke-width="5" stroke-linecap="round"/>
  <!-- Text PP1 -->
  <text x="256" y="475" text-anchor="middle" font-family="system-ui, -apple-system, sans-serif" font-weight="900" font-size="44" fill="#ffffff" letter-spacing="4">DIVISI PRODUKSI 1</text>
  <rect x="200" y="226" width="112" height="60" rx="14" fill="#0b192c" stroke="#f59e0b" stroke-width="4"/>
  <text x="256" y="270" text-anchor="middle" font-family="system-ui, -apple-system, sans-serif" font-weight="900" font-size="34" fill="#f8fafc" letter-spacing="2">PP1</text>
</svg>
